# xmcd CD database file
#
# Track frame offsets:
#	150
#	17574
#	33803
#	48964
#	72659
#	95523
#	112406
#	134334
#	158940
#	184100
#	212103
#	241276
#	262209
#	310311
#
# Disc length: 4430 seconds
#
# Revision: 3
# Processed by: cddbd v1.4PL0 Copyright (c) Steve Scherf et al.
# Submitted via: CDex 1.50
#
DISCID=cf114c0e
DTITLE=Santana -  Live At Sunrise
DYEAR=1900
DGENRE=Rock
TTITLE0=Everybody's Everything
TTITLE1=Black Magic Woman
TTITLE2=Gypsy Queen
TTITLE3=Oye Como Va
TTITLE4=Samba Pa Ti
TTITLE5=Batuka
TTITLE6=No One To Depend On
TTITLE7=Spirits Dancing In The Flesh
TTITLE8=The Healer
TTITLE9=Smooth Criminal
TTITLE10=Europa
TTITLE11=Cloud Nine
TTITLE12=Soul Sacrifice
TTITLE13=Once It´s Gotcha
EXTD=
EXTT0=
EXTT1=
EXTT2=
EXTT3=
EXTT4=
EXTT5=
EXTT6=
EXTT7=
EXTT8=
EXTT9=
EXTT10=
EXTT11=
EXTT12=
EXTT13=
PLAYORDER=
